{"accessors" : [{"bufferView" : 0, "byteOffset" : 0, "componentType" : 5123, "count" : 5868, "type" : "SCALAR", "max" : [5631], "min" : [0]}, {"bufferView" : 1, "byteOffset" : 0, "componentType" : 5126, "count" : 5632, "type" : "VEC3", "max" : [298.9762878417969, 251.9999542236328, 286.0377197265625], "min" : [-288.04840087890625, 47.999961853027344, -215.03768920898438], "name" : "POSITION"}, {"bufferView" : 1, "byteOffset" : 12, "componentType" : 5126, "count" : 5632, "type" : "VEC2", "max" : [1, 1], "min" : [0, 0], "name" : "TEXCOORD_0"}, {"bufferView" : 1, "byteOffset" : 20, "componentType" : 5126, "count" : 5632, "type" : "VEC3", "max" : [1.0000044107437134, 1.0000044107437134, 1.0000044107437134], "min" : [-1.0000044107437134, -1.0000044107437134, -1.0000044107437134], "name" : "NORMAL"}, {"bufferView" : 0, "byteOffset" : 11736, "componentType" : 5123, "count" : 5328, "type" : "SCALAR", "max" : [5069], "min" : [0]}, {"bufferView" : 2, "byteOffset" : 0, "componentType" : 5126, "count" : 5070, "type" : "VEC3", "max" : [304.9761962890625, 318.0000305175781, 321.0814514160156], "min" : [-332.0238952636719, -5.199999941396527E-05, -275.03765869140625], "name" : "POSITION"}, {"bufferView" : 2, "byteOffset" : 12, "componentType" : 5126, "count" : 5070, "type" : "VEC2", "max" : [27.38330078125, 25.338300704956055], "min" : [-26.38330078125, -24.338300704956055], "name" : "TEXCOORD_0"}, {"bufferView" : 2, "byteOffset" : 20, "componentType" : 5126, "count" : 5070, "type" : "VEC3", "max" : [1.0000044107437134, 1.0000044107437134, 1.0000044107437134], "min" : [-1.0000044107437134, -1.0000044107437134, -1.0000044107437134], "name" : "NORMAL"}, {"bufferView" : 0, "byteOffset" : 22392, "componentType" : 5123, "count" : 1398, "type" : "SCALAR", "max" : [1325], "min" : [0]}, {"bufferView" : 3, "byteOffset" : 0, "componentType" : 5126, "count" : 1326, "type" : "VEC3", "max" : [-217.0238037109375, 168.99998474121094, 280.0376892089844], "min" : [-319.0238037109375, -2.499999936844688E-05, 58.620399475097656], "name" : "POSITION"}, {"bufferView" : 3, "byteOffset" : 12, "componentType" : 5126, "count" : 1326, "type" : "VEC2", "max" : [9.725700378417969, 7.5416998863220215], "min" : [-8.725700378417969, -6.5416998863220215], "name" : "TEXCOORD_0"}, {"bufferView" : 3, "byteOffset" : 20, "componentType" : 5126, "count" : 1326, "type" : "VEC3", "max" : [1.0000044107437134, 1.0000044107437134, 1.0000044107437134], "min" : [-1.0000044107437134, -1.0000044107437134, -1.0000044107437134], "name" : "NORMAL"}, {"bufferView" : 0, "byteOffset" : 25188, "componentType" : 5123, "count" : 576, "type" : "SCALAR", "max" : [571], "min" : [0]}, {"bufferView" : 4, "byteOffset" : 0, "componentType" : 5126, "count" : 572, "type" : "VEC3", "max" : [298.9761962890625, 98.00007629394531, 287.0377197265625], "min" : [-331.0238952636719, -4.70000013592653E-05, -467.0376892089844], "name" : "POSITION"}, {"bufferView" : 4, "byteOffset" : 12, "componentType" : 5126, "count" : 572, "type" : "VEC2", "max" : [1, 1], "min" : [0, 0], "name" : "TEXCOORD_0"}, {"bufferView" : 4, "byteOffset" : 20, "componentType" : 5126, "count" : 572, "type" : "VEC3", "max" : [1.0000044107437134, 1.0000044107437134, 1.0000044107437134], "min" : [-1.0000044107437134, -1.0000044107437134, -1.0000044107437134], "name" : "NORMAL"}, {"bufferView" : 0, "byteOffset" : 26340, "componentType" : 5123, "count" : 1380, "type" : "SCALAR", "max" : [1342], "min" : [0]}, {"bufferView" : 5, "byteOffset" : 0, "componentType" : 5126, "count" : 1343, "type" : "VEC3", "max" : [193.92860412597656, 234.0000762939453, 287.0377197265625], "min" : [-205.0238037109375, 119.9998550415039, -275.03778076171875], "name" : "POSITION"}, {"bufferView" : 5, "byteOffset" : 12, "componentType" : 5126, "count" : 1343, "type" : "VEC2", "max" : [23.9197998046875, 17.12299919128418], "min" : [-22.9197998046875, -16.12299919128418], "name" : "TEXCOORD_0"}, {"bufferView" : 5, "byteOffset" : 20, "componentType" : 5126, "count" : 1343, "type" : "VEC3", "max" : [1.0000044107437134, 1.0000044107437134, 1.0000044107437134], "min" : [-1.0000044107437134, -1.0000044107437134, -1.0000044107437134], "name" : "NORMAL"}, {"bufferView" : 0, "byteOffset" : 29100, "componentType" : 5123, "count" : 7032, "type" : "SCALAR", "max" : [6685], "min" : [0]}, {"bufferView" : 6, "byteOffset" : 0, "componentType" : 5126, "count" : 6686, "type" : "VEC3", "max" : [202.9761962890625, 222.00003051757812, 287.0376892089844], "min" : [-259.0238037109375, 5.999952793121338, -215.03770446777344], "name" : "POSITION"}, {"bufferView" : 6, "byteOffset" : 12, "componentType" : 5126, "count" : 6686, "type" : "VEC2", "max" : [1, 1], "min" : [0, 0], "name" : "TEXCOORD_0"}, {"bufferView" : 6, "byteOffset" : 20, "componentType" : 5126, "count" : 6686, "type" : "VEC3", "max" : [1.0000044107437134, 1.0000044107437134, 1.0000044107437134], "min" : [-1.0000044107437134, -1.0000044107437134, -1.0000044107437134], "name" : "NORMAL"}, {"bufferView" : 0, "byteOffset" : 43164, "componentType" : 5123, "count" : 1788, "type" : "SCALAR", "max" : [1705], "min" : [0]}, {"bufferView" : 7, "byteOffset" : 0, "componentType" : 5126, "count" : 1706, "type" : "VEC3", "max" : [332.0238952636719, 271.00006103515625, 320.0853271484375], "min" : [-319.03271484375, 233.9999542236328, -308.09356689453125], "name" : "POSITION"}, {"bufferView" : 7, "byteOffset" : 12, "componentType" : 5126, "count" : 1706, "type" : "VEC2", "max" : [27.627399444580078, 26.674100875854492], "min" : [-26.627399444580078, -25.674100875854492], "name" : "TEXCOORD_0"}, {"bufferView" : 7, "byteOffset" : 20, "componentType" : 5126, "count" : 1706, "type" : "VEC3", "max" : [1.0000044107437134, 1.0000044107437134, 1.0000044107437134], "min" : [-1.0000044107437134, -1.0000044107437134, -1.0000044107437134], "name" : "NORMAL"}, {"bufferView" : 0, "byteOffset" : 46740, "componentType" : 5123, "count" : 1296, "type" : "SCALAR", "max" : [1200], "min" : [0]}, {"bufferView" : 8, "byteOffset" : 0, "componentType" : 5126, "count" : 1201, "type" : "VEC3", "max" : [298.9762878417969, 138.00003051757812, 287.0376892089844], "min" : [-319.0238037109375, -4.70000013592653E-05, -292.0082092285156], "name" : "POSITION"}, {"bufferView" : 8, "byteOffset" : 12, "componentType" : 5126, "count" : 1201, "type" : "VEC2", "max" : [27.833999633789062, 21.4197998046875], "min" : [-26.833999633789062, -26.833999633789062], "name" : "TEXCOORD_0"}, {"bufferView" : 8, "byteOffset" : 20, "componentType" : 5126, "count" : 1201, "type" : "VEC3", "max" : [1.0000044107437134, 1.0000044107437134, 1.0000044107437134], "min" : [-1.0000044107437134, -1.0000044107437134, -1.0000044107437134], "name" : "NORMAL"}, {"bufferView" : 0, "byteOffset" : 49332, "componentType" : 5123, "count" : 162, "type" : "SCALAR", "max" : [150], "min" : [0]}, {"bufferView" : 9, "byteOffset" : 0, "componentType" : 5126, "count" : 151, "type" : "VEC3", "max" : [298.9762878417969, 5.999952793121338, 467.0376892089844], "min" : [-332.0238037109375, -7.599999662488699E-05, -455.0376892089844], "name" : "POSITION"}, {"bufferView" : 9, "byteOffset" : 12, "componentType" : 5126, "count" : 151, "type" : "VEC2", "max" : [38.9197998046875, 38.9197998046875], "min" : [-37.9197998046875, -37.9197998046875], "name" : "TEXCOORD_0"}, {"bufferView" : 9, "byteOffset" : 20, "componentType" : 5126, "count" : 151, "type" : "VEC3", "max" : [1.0000044107437134, 1.0000044107437134, 1.0000044107437134], "min" : [-1.0000044107437134, -1.0000044107437134, -1.0000044107437134], "name" : "NORMAL"}, {"bufferView" : 0, "byteOffset" : 49656, "componentType" : 5123, "count" : 864, "type" : "SCALAR", "max" : [840], "min" : [0]}, {"bufferView" : 10, "byteOffset" : 0, "componentType" : 5126, "count" : 841, "type" : "VEC3", "max" : [202.97630310058594, 258.0000915527344, 221.0377197265625], "min" : [-319.0238952636719, 17.999963760375977, -209.03770446777344], "name" : "POSITION"}, {"bufferView" : 10, "byteOffset" : 12, "componentType" : 5126, "count" : 841, "type" : "VEC2", "max" : [1, 1], "min" : [0, 0], "name" : "TEXCOORD_0"}, {"bufferView" : 10, "byteOffset" : 20, "componentType" : 5126, "count" : 841, "type" : "VEC3", "max" : [1.0000044107437134, 1.0000044107437134, 1.0000044107437134], "min" : [-1.0000044107437134, -1.0000044107437134, -1.0000044107437134], "name" : "NORMAL"}, {"bufferView" : 0, "byteOffset" : 51384, "componentType" : 5123, "count" : 4752, "type" : "SCALAR", "max" : [4657], "min" : [0]}, {"bufferView" : 11, "byteOffset" : 0, "componentType" : 5126, "count" : 4658, "type" : "VEC3", "max" : [294.00408935546875, 98.00007629394531, 287.0377197265625], "min" : [-325.63470458984375, 3.999953031539917, -462.19781494140625], "name" : "POSITION"}, {"bufferView" : 11, "byteOffset" : 12, "componentType" : 5126, "count" : 4658, "type" : "VEC2", "max" : [31.71820068359375, 31.71820068359375], "min" : [-30.71820068359375, -30.71820068359375], "name" : "TEXCOORD_0"}, {"bufferView" : 11, "byteOffset" : 20, "componentType" : 5126, "count" : 4658, "type" : "VEC3", "max" : [1.0000044107437134, 1.0000044107437134, 1.0000044107437134], "min" : [-1.0000044107437134, -1.0000044107437134, -1.0000044107437134], "name" : "NORMAL"}], "asset" : {"generator" : "Aspose.3D 24.1.0", "version" : "2.0"}, "buffers" : [{"uri" : "data:application/octet-stream;base64,", "byteLength" : 1035144}], "bufferViews" : [{"buffer" : 0, "byteOffset" : 0, "byteLength" : 60888, "target" : 34963}, {"buffer" : 0, "byteOffset" : 60892, "byteLength" : 187776, "byteStride" : 32, "target" : 34962}, {"buffer" : 0, "byteOffset" : 248672, "byteLength" : 170496, "byteStride" : 32, "target" : 34962}, {"buffer" : 0, "byteOffset" : 419172, "byteLength" : 44736, "byteStride" : 32, "target" : 34962}, {"buffer" : 0, "byteOffset" : 463912, "byteLength" : 18432, "byteStride" : 32, "target" : 34962}, {"buffer" : 0, "byteOffset" : 482348, "byteLength" : 44160, "byteStride" : 32, "target" : 34962}, {"buffer" : 0, "byteOffset" : 526512, "byteLength" : 225024, "byteStride" : 32, "target" : 34962}, {"buffer" : 0, "byteOffset" : 751540, "byteLength" : 57216, "byteStride" : 32, "target" : 34962}, {"buffer" : 0, "byteOffset" : 808760, "byteLength" : 41472, "byteStride" : 32, "target" : 34962}, {"buffer" : 0, "byteOffset" : 850236, "byteLength" : 5184, "byteStride" : 32, "target" : 34962}, {"buffer" : 0, "byteOffset" : 855424, "byteLength" : 27648, "byteStride" : 32, "target" : 34962}, {"buffer" : 0, "byteOffset" : 883076, "byteLength" : 152064, "byteStride" : 32, "target" : 34962}], "meshes" : [{"primitives" : [{"attributes" : {"POSITION" : 1, "TEXCOORD_0" : 2, "NORMAL" : 3}, "indices" : 0, "mode" : 4}], "name" : ""}, {"primitives" : [{"attributes" : {"POSITION" : 5, "TEXCOORD_0" : 6, "NORMAL" : 7}, "indices" : 4, "mode" : 4}], "name" : ""}, {"primitives" : [{"attributes" : {"POSITION" : 9, "TEXCOORD_0" : 10, "NORMAL" : 11}, "indices" : 8, "mode" : 4}], "name" : ""}, {"primitives" : [{"attributes" : {"POSITION" : 13, "TEXCOORD_0" : 14, "NORMAL" : 15}, "indices" : 12, "mode" : 4}], "name" : ""}, {"primitives" : [{"attributes" : {"POSITION" : 17, "TEXCOORD_0" : 18, "NORMAL" : 19}, "indices" : 16, "mode" : 4}], "name" : ""}, {"primitives" : [{"attributes" : {"POSITION" : 21, "TEXCOORD_0" : 22, "NORMAL" : 23}, "indices" : 20, "mode" : 4}], "name" : ""}, {"primitives" : [{"attributes" : {"POSITION" : 25, "TEXCOORD_0" : 26, "NORMAL" : 27}, "indices" : 24, "mode" : 4}], "name" : ""}, {"primitives" : [{"attributes" : {"POSITION" : 29, "TEXCOORD_0" : 30, "NORMAL" : 31}, "indices" : 28, "mode" : 4}], "name" : ""}, {"primitives" : [{"attributes" : {"POSITION" : 33, "TEXCOORD_0" : 34, "NORMAL" : 35}, "indices" : 32, "mode" : 4}], "name" : ""}, {"primitives" : [{"attributes" : {"POSITION" : 37, "TEXCOORD_0" : 38, "NORMAL" : 39}, "indices" : 36, "mode" : 4}], "name" : ""}, {"primitives" : [{"attributes" : {"POSITION" : 41, "TEXCOORD_0" : 42, "NORMAL" : 43}, "indices" : 40, "mode" : 4}], "name" : ""}], "nodes" : [{"mesh" : 0, "name" : "MH1_OBJ_02"}, {"mesh" : 1, "name" : "MH1_OBJ_10"}, {"mesh" : 2, "name" : "MH1_OBJ_09"}, {"mesh" : 3, "name" : "MH1_OBJ_07"}, {"mesh" : 4, "name" : "MH1_OBJ_01"}, {"mesh" : 5, "name" : "MH1_OBJ_06"}, {"mesh" : 6, "name" : "MH1_OBJ_05"}, {"mesh" : 7, "name" : "MH1_OBJ_03"}, {"mesh" : 8, "name" : "MH1_OBJ_08"}, {"mesh" : 9, "name" : "MH1_OBJ_04"}, {"mesh" : 10, "name" : "MH1_OBJ_11"}], "scene" : 0, "scenes" : [{"nodes" : [0, 1, 2, 3, 4, 5, 6, 7, 8, 9, 10]}]}